<mxfile host="app.diagrams.net" agent="Mozilla/5.0 (Windows NT 10.0; Win64; x64) AppleWebKit/537.36 (KHTML, like Gecko) Chrome/130.0.0.0 Safari/537.36 Edg/130.0.0.0" version="24.8.0">
  <diagram name="Page-1" id="iTTW3fVlsuOguZKpJUbT">
    <mxGraphModel dx="1603" dy="1764" grid="1" gridSize="10" guides="1" tooltips="1" connect="1" arrows="1" fold="1" page="1" pageScale="1" pageWidth="850" pageHeight="1100" math="0" shadow="0">
      <root>
        <mxCell id="0" />
        <mxCell id="1" parent="0" />
        <mxCell id="-6jkph7FzNkahpUaPRVP-1" value="" style="rounded=0;whiteSpace=wrap;html=1;" vertex="1" parent="1">
          <mxGeometry x="10" y="-270" width="830" height="620" as="geometry" />
        </mxCell>
        <mxCell id="-6jkph7FzNkahpUaPRVP-2" value="&lt;font style=&quot;font-size: 36px;&quot;&gt;Map API&lt;/font&gt;" style="rounded=0;whiteSpace=wrap;html=1;" vertex="1" parent="1">
          <mxGeometry x="40" y="-60" width="770" height="330" as="geometry" />
        </mxCell>
        <mxCell id="-6jkph7FzNkahpUaPRVP-4" value="&lt;font style=&quot;font-size: 36px;&quot;&gt;Precipitracker&lt;/font&gt;&lt;div&gt;&lt;br&gt;&lt;/div&gt;&lt;div&gt;&lt;span style=&quot;font-size: 18px;&quot;&gt;&quot;Decipher the downpour!&quot;&lt;/span&gt;&lt;/div&gt;" style="text;html=1;align=center;verticalAlign=middle;whiteSpace=wrap;rounded=0;" vertex="1" parent="1">
          <mxGeometry x="275" y="-280" width="320" height="110" as="geometry" />
        </mxCell>
        <mxCell id="-6jkph7FzNkahpUaPRVP-5" value="08/14/2024" style="rounded=0;whiteSpace=wrap;html=1;" vertex="1" parent="1">
          <mxGeometry x="470" y="-100" width="90" height="30" as="geometry" />
        </mxCell>
        <mxCell id="-6jkph7FzNkahpUaPRVP-6" value="To:" style="text;html=1;align=center;verticalAlign=middle;whiteSpace=wrap;rounded=0;" vertex="1" parent="1">
          <mxGeometry x="410" y="-100" width="60" height="30" as="geometry" />
        </mxCell>
        <mxCell id="-6jkph7FzNkahpUaPRVP-9" value="From:" style="text;html=1;align=center;verticalAlign=middle;whiteSpace=wrap;rounded=0;" vertex="1" parent="1">
          <mxGeometry x="595" y="-100" width="60" height="30" as="geometry" />
        </mxCell>
        <mxCell id="-6jkph7FzNkahpUaPRVP-10" value="08/21/2024" style="rounded=0;whiteSpace=wrap;html=1;" vertex="1" parent="1">
          <mxGeometry x="655" y="-100" width="90" height="30" as="geometry" />
        </mxCell>
        <mxCell id="-6jkph7FzNkahpUaPRVP-11" value="&lt;font style=&quot;font-size: 18px;&quot;&gt;Possible Header for &quot;Settings&quot; or &quot;About Us&quot;&lt;/font&gt;" style="rounded=0;whiteSpace=wrap;html=1;" vertex="1" parent="1">
          <mxGeometry x="10" y="-170" width="830" height="40" as="geometry" />
        </mxCell>
        <mxCell id="-6jkph7FzNkahpUaPRVP-12" value="&lt;font style=&quot;font-size: 18px;&quot;&gt;Possible footer for other links&lt;/font&gt;" style="rounded=0;whiteSpace=wrap;html=1;" vertex="1" parent="1">
          <mxGeometry x="10" y="300" width="830" height="50" as="geometry" />
        </mxCell>
        <mxCell id="-6jkph7FzNkahpUaPRVP-14" value="&lt;font style=&quot;font-size: 18px;&quot;&gt;Default region view or specified state view based on location access&lt;/font&gt;" style="text;html=1;align=center;verticalAlign=middle;whiteSpace=wrap;rounded=0;" vertex="1" parent="1">
          <mxGeometry x="290" y="170" width="270" height="50" as="geometry" />
        </mxCell>
        <mxCell id="-6jkph7FzNkahpUaPRVP-15" value="" style="ellipse;whiteSpace=wrap;html=1;aspect=fixed;" vertex="1" parent="1">
          <mxGeometry x="50" y="-50" width="80" height="80" as="geometry" />
        </mxCell>
        <mxCell id="-6jkph7FzNkahpUaPRVP-16" value="" style="shape=flexArrow;endArrow=classic;html=1;rounded=0;exitX=1;exitY=0.5;exitDx=0;exitDy=0;entryX=0;entryY=0.5;entryDx=0;entryDy=0;elbow=vertical;" edge="1" parent="1" source="-6jkph7FzNkahpUaPRVP-15" target="-6jkph7FzNkahpUaPRVP-15">
          <mxGeometry width="50" height="50" relative="1" as="geometry">
            <mxPoint x="450" y="70" as="sourcePoint" />
            <mxPoint x="500" y="20" as="targetPoint" />
          </mxGeometry>
        </mxCell>
      </root>
    </mxGraphModel>
  </diagram>
</mxfile>
